<mxfile host="Electron" agent="Mozilla/5.0 (Windows NT 10.0; Win64; x64) AppleWebKit/537.36 (KHTML, like Gecko) draw.io/28.0.6 Chrome/138.0.7204.100 Electron/37.2.3 Safari/537.36" version="28.0.6">
  <diagram id="5lZ65Kz0u6zD3b-752u4" name="PÃ¡gina-1">
    <mxGraphModel dx="1042" dy="634" grid="1" gridSize="10" guides="1" tooltips="1" connect="1" arrows="1" fold="1" page="1" pageScale="1" pageWidth="827" pageHeight="1169" math="0" shadow="0">
      <root>
        <mxCell id="0" />
        <mxCell id="1" parent="0" />
        <mxCell id="HomYi5qpyMYYn_mKcV9q-37" value="" style="rounded=1;whiteSpace=wrap;html=1;" vertex="1" parent="1">
          <mxGeometry x="455" y="280" width="80" height="80" as="geometry" />
        </mxCell>
        <mxCell id="HomYi5qpyMYYn_mKcV9q-25" value="" style="rounded=1;whiteSpace=wrap;html=1;" vertex="1" parent="1">
          <mxGeometry x="610" y="290" width="80" height="55" as="geometry" />
        </mxCell>
        <mxCell id="HomYi5qpyMYYn_mKcV9q-18" value="" style="rounded=1;whiteSpace=wrap;html=1;" vertex="1" parent="1">
          <mxGeometry x="455" y="149.5" width="70" height="50" as="geometry" />
        </mxCell>
        <mxCell id="HomYi5qpyMYYn_mKcV9q-12" value="agente" style="shape=umlActor;verticalLabelPosition=bottom;verticalAlign=top;html=1;outlineConnect=0;" vertex="1" parent="1">
          <mxGeometry x="667" y="140" width="30" height="60" as="geometry" />
        </mxCell>
        <mxCell id="HomYi5qpyMYYn_mKcV9q-11" value="" style="shape=cube;whiteSpace=wrap;html=1;boundedLbl=1;backgroundOutline=1;darkOpacity=0.05;darkOpacity2=0.1;" vertex="1" parent="1">
          <mxGeometry x="580" y="148.5" width="90" height="61" as="geometry" />
        </mxCell>
        <mxCell id="HomYi5qpyMYYn_mKcV9q-9" value="" style="rounded=1;whiteSpace=wrap;html=1;" vertex="1" parent="1">
          <mxGeometry x="110" y="159" width="80" height="40" as="geometry" />
        </mxCell>
        <mxCell id="HomYi5qpyMYYn_mKcV9q-1" value="" style="rounded=1;whiteSpace=wrap;html=1;" vertex="1" parent="1">
          <mxGeometry x="90" y="50" width="120" height="60" as="geometry" />
        </mxCell>
        <mxCell id="HomYi5qpyMYYn_mKcV9q-2" value="Inicio" style="text;html=1;align=center;verticalAlign=middle;whiteSpace=wrap;rounded=0;" vertex="1" parent="1">
          <mxGeometry x="120" y="65" width="60" height="30" as="geometry" />
        </mxCell>
        <mxCell id="HomYi5qpyMYYn_mKcV9q-3" value="cliente" style="shape=umlActor;verticalLabelPosition=bottom;verticalAlign=top;html=1;outlineConnect=0;" vertex="1" parent="1">
          <mxGeometry x="240" y="139" width="30" height="60" as="geometry" />
        </mxCell>
        <mxCell id="HomYi5qpyMYYn_mKcV9q-4" value="cliente" style="shape=umlActor;verticalLabelPosition=bottom;verticalAlign=top;html=1;outlineConnect=0;" vertex="1" parent="1">
          <mxGeometry x="290" y="139" width="30" height="60" as="geometry" />
        </mxCell>
        <mxCell id="HomYi5qpyMYYn_mKcV9q-5" value="cliente" style="shape=umlActor;verticalLabelPosition=bottom;verticalAlign=top;html=1;outlineConnect=0;" vertex="1" parent="1">
          <mxGeometry x="350" y="140" width="30" height="60" as="geometry" />
        </mxCell>
        <mxCell id="HomYi5qpyMYYn_mKcV9q-6" value="cliente" style="shape=umlActor;verticalLabelPosition=bottom;verticalAlign=top;html=1;outlineConnect=0;" vertex="1" parent="1">
          <mxGeometry x="399" y="139" width="30" height="60" as="geometry" />
        </mxCell>
        <mxCell id="HomYi5qpyMYYn_mKcV9q-7" value="cliente" style="shape=umlActor;verticalLabelPosition=bottom;verticalAlign=top;html=1;outlineConnect=0;" vertex="1" parent="1">
          <mxGeometry x="540" y="135" width="30" height="60" as="geometry" />
        </mxCell>
        <mxCell id="HomYi5qpyMYYn_mKcV9q-8" value="Cliente hace fila" style="text;html=1;align=center;verticalAlign=middle;whiteSpace=wrap;rounded=0;" vertex="1" parent="1">
          <mxGeometry x="120" y="165" width="60" height="30" as="geometry" />
        </mxCell>
        <mxCell id="HomYi5qpyMYYn_mKcV9q-16" value="" style="shape=cube;whiteSpace=wrap;html=1;boundedLbl=1;backgroundOutline=1;darkOpacity=0.05;darkOpacity2=0.1;" vertex="1" parent="1">
          <mxGeometry x="615" y="125" width="20" height="40" as="geometry" />
        </mxCell>
        <mxCell id="HomYi5qpyMYYn_mKcV9q-17" value="cliente hace check-in" style="text;html=1;align=center;verticalAlign=middle;whiteSpace=wrap;rounded=0;" vertex="1" parent="1">
          <mxGeometry x="460" y="159" width="60" height="30" as="geometry" />
        </mxCell>
        <mxCell id="HomYi5qpyMYYn_mKcV9q-19" value="" style="endArrow=classic;html=1;rounded=0;" edge="1" parent="1">
          <mxGeometry width="50" height="50" relative="1" as="geometry">
            <mxPoint x="660" y="220" as="sourcePoint" />
            <mxPoint x="660" y="280" as="targetPoint" />
          </mxGeometry>
        </mxCell>
        <mxCell id="HomYi5qpyMYYn_mKcV9q-20" value="" style="endArrow=classic;html=1;rounded=0;exitX=0.5;exitY=1;exitDx=0;exitDy=0;entryX=0.5;entryY=0;entryDx=0;entryDy=0;" edge="1" parent="1" source="HomYi5qpyMYYn_mKcV9q-1" target="HomYi5qpyMYYn_mKcV9q-8">
          <mxGeometry width="50" height="50" relative="1" as="geometry">
            <mxPoint x="390" y="350" as="sourcePoint" />
            <mxPoint x="440" y="300" as="targetPoint" />
          </mxGeometry>
        </mxCell>
        <mxCell id="HomYi5qpyMYYn_mKcV9q-22" value="" style="endArrow=classic;html=1;rounded=0;" edge="1" parent="1">
          <mxGeometry width="50" height="50" relative="1" as="geometry">
            <mxPoint x="190" y="185" as="sourcePoint" />
            <mxPoint x="230" y="185" as="targetPoint" />
          </mxGeometry>
        </mxCell>
        <mxCell id="HomYi5qpyMYYn_mKcV9q-23" value="" style="endArrow=classic;html=1;rounded=0;" edge="1" parent="1">
          <mxGeometry width="50" height="50" relative="1" as="geometry">
            <mxPoint x="414" y="179.5" as="sourcePoint" />
            <mxPoint x="454" y="179.5" as="targetPoint" />
          </mxGeometry>
        </mxCell>
        <mxCell id="HomYi5qpyMYYn_mKcV9q-24" value="Agente entrega equipaje" style="text;html=1;align=center;verticalAlign=middle;whiteSpace=wrap;rounded=0;" vertex="1" parent="1">
          <mxGeometry x="620" y="300" width="60" height="30" as="geometry" />
        </mxCell>
        <mxCell id="HomYi5qpyMYYn_mKcV9q-26" value="agente" style="shape=umlActor;verticalLabelPosition=bottom;verticalAlign=top;html=1;outlineConnect=0;" vertex="1" parent="1">
          <mxGeometry x="690" y="360" width="30" height="60" as="geometry" />
        </mxCell>
        <mxCell id="HomYi5qpyMYYn_mKcV9q-27" value="cliente" style="shape=umlActor;verticalLabelPosition=bottom;verticalAlign=top;html=1;outlineConnect=0;" vertex="1" parent="1">
          <mxGeometry x="605" y="360" width="30" height="60" as="geometry" />
        </mxCell>
        <mxCell id="HomYi5qpyMYYn_mKcV9q-28" value="" style="endArrow=classic;html=1;rounded=0;exitX=0;exitY=0.75;exitDx=0;exitDy=0;" edge="1" parent="1" source="HomYi5qpyMYYn_mKcV9q-25">
          <mxGeometry width="50" height="50" relative="1" as="geometry">
            <mxPoint x="465" y="360" as="sourcePoint" />
            <mxPoint x="540" y="330" as="targetPoint" />
          </mxGeometry>
        </mxCell>
        <mxCell id="HomYi5qpyMYYn_mKcV9q-30" value="" style="shape=message;html=1;html=1;outlineConnect=0;labelPosition=center;verticalLabelPosition=bottom;align=center;verticalAlign=top;" vertex="1" parent="1">
          <mxGeometry x="640" y="390" width="20" height="20" as="geometry" />
        </mxCell>
        <mxCell id="HomYi5qpyMYYn_mKcV9q-31" value="agente" style="shape=umlActor;verticalLabelPosition=bottom;verticalAlign=top;html=1;outlineConnect=0;" vertex="1" parent="1">
          <mxGeometry x="414" y="280" width="30" height="60" as="geometry" />
        </mxCell>
        <mxCell id="HomYi5qpyMYYn_mKcV9q-32" value="" style="shape=cube;whiteSpace=wrap;html=1;boundedLbl=1;backgroundOutline=1;darkOpacity=0.05;darkOpacity2=0.1;" vertex="1" parent="1">
          <mxGeometry x="380" y="300" width="50" height="50" as="geometry" />
        </mxCell>
        <mxCell id="HomYi5qpyMYYn_mKcV9q-33" value="cliente" style="shape=umlActor;verticalLabelPosition=bottom;verticalAlign=top;html=1;outlineConnect=0;" vertex="1" parent="1">
          <mxGeometry x="340" y="270" width="30" height="60" as="geometry" />
        </mxCell>
        <mxCell id="HomYi5qpyMYYn_mKcV9q-34" value="" style="shape=message;html=1;html=1;outlineConnect=0;labelPosition=center;verticalLabelPosition=bottom;align=center;verticalAlign=top;" vertex="1" parent="1">
          <mxGeometry x="320" y="315" width="20" height="20" as="geometry" />
        </mxCell>
        <mxCell id="HomYi5qpyMYYn_mKcV9q-35" value="" style="verticalLabelPosition=bottom;verticalAlign=top;html=1;shape=process;whiteSpace=wrap;rounded=1;size=0.14;arcSize=6;" vertex="1" parent="1">
          <mxGeometry x="370" y="290" width="29" height="10" as="geometry" />
        </mxCell>
        <mxCell id="HomYi5qpyMYYn_mKcV9q-36" value="Agente entrega tarjeta de embarque" style="text;html=1;align=center;verticalAlign=middle;whiteSpace=wrap;rounded=0;" vertex="1" parent="1">
          <mxGeometry x="465" y="305" width="60" height="30" as="geometry" />
        </mxCell>
        <mxCell id="HomYi5qpyMYYn_mKcV9q-38" value="" style="endArrow=classic;html=1;rounded=0;exitX=0;exitY=0.75;exitDx=0;exitDy=0;" edge="1" parent="1">
          <mxGeometry width="50" height="50" relative="1" as="geometry">
            <mxPoint x="300" y="320.5" as="sourcePoint" />
            <mxPoint x="230" y="319.5" as="targetPoint" />
          </mxGeometry>
        </mxCell>
        <mxCell id="HomYi5qpyMYYn_mKcV9q-39" value="" style="rounded=1;whiteSpace=wrap;html=1;" vertex="1" parent="1">
          <mxGeometry x="10" y="287.5" width="120" height="60" as="geometry" />
        </mxCell>
        <mxCell id="HomYi5qpyMYYn_mKcV9q-40" value="Fin" style="text;html=1;align=center;verticalAlign=middle;whiteSpace=wrap;rounded=0;" vertex="1" parent="1">
          <mxGeometry x="40" y="300" width="60" height="30" as="geometry" />
        </mxCell>
        <mxCell id="HomYi5qpyMYYn_mKcV9q-41" value="cliente" style="shape=umlActor;verticalLabelPosition=bottom;verticalAlign=top;html=1;outlineConnect=0;" vertex="1" parent="1">
          <mxGeometry x="180" y="270" width="30" height="60" as="geometry" />
        </mxCell>
        <mxCell id="HomYi5qpyMYYn_mKcV9q-42" value="" style="shape=message;html=1;html=1;outlineConnect=0;labelPosition=center;verticalLabelPosition=bottom;align=center;verticalAlign=top;" vertex="1" parent="1">
          <mxGeometry x="160" y="290" width="20" height="20" as="geometry" />
        </mxCell>
        <mxCell id="HomYi5qpyMYYn_mKcV9q-43" value="" style="verticalLabelPosition=bottom;verticalAlign=top;html=1;shape=process;whiteSpace=wrap;rounded=1;size=0.14;arcSize=6;" vertex="1" parent="1">
          <mxGeometry x="370" y="290" width="29" height="10" as="geometry" />
        </mxCell>
        <mxCell id="HomYi5qpyMYYn_mKcV9q-44" value="" style="verticalLabelPosition=bottom;verticalAlign=top;html=1;shape=process;whiteSpace=wrap;rounded=1;size=0.14;arcSize=6;" vertex="1" parent="1">
          <mxGeometry x="210" y="287.5" width="29" height="10" as="geometry" />
        </mxCell>
      </root>
    </mxGraphModel>
  </diagram>
</mxfile>
